<svg width="29" height="28" viewBox="0 0 29 28" fill="none" xmlns="http://www.w3.org/2000/svg">
<path d="M14.9586 8.99477C16.1421 9.09833 17.1197 9.56435 17.9945 10.3411C18.7148 10.9106 19.5896 10.9106 20.1556 10.2893C20.7216 9.66791 20.6701 8.78764 20.0012 8.1145C19.7439 7.8556 19.4352 7.59669 19.1265 7.33779C15.7819 5.00768 10.8937 5.62904 8.321 8.78765C5.5939 12.1016 5.85117 17.0207 8.887 19.9722C11.2025 22.1988 14.7014 22.8719 17.6857 21.6292C18.8177 21.1632 19.8468 20.5418 20.5672 19.5062C21.0303 18.8331 20.9274 18.0046 20.3614 17.4868C19.8468 17.0207 18.9206 17.0207 18.3032 17.5385C17.943 17.7974 17.6343 18.1081 17.2741 18.367C15.5246 19.558 13.0548 19.4544 11.4083 18.1081C9.55591 16.6065 8.98991 14.3282 9.91609 12.0498C10.7394 10.0304 12.9005 8.78765 14.9586 8.99477Z" fill="#1EEDCF"/>
<path d="M25.7124 18.4188C24.9406 18.0046 24.1173 18.3153 23.5513 19.2991C19.6922 26.0306 10.8935 26.9626 5.74805 21.215C4.7704 20.1276 4.10149 18.8331 3.58695 17.3832C3.53549 17.2797 3.48404 17.1243 3.43258 17.0208C3.27822 16.4512 3.17531 15.8816 3.0724 15.312C2.86658 13.5515 3.0724 11.9463 3.6384 10.4446C3.68986 10.3929 3.74131 10.2893 3.74131 10.1857C4.15295 9.15013 4.71895 8.11452 5.43932 7.23425C6.46841 5.99152 7.65187 5.0077 8.88678 4.33455C10.7906 3.35072 13.0546 2.93648 15.3186 3.24716C15.8332 3.29894 16.3477 3.45428 16.8108 3.55784C17.0681 3.55784 17.171 3.60962 17.3253 3.60962C19.3835 4.28277 21.2359 5.57728 22.6766 7.44138C22.9853 7.85562 23.2426 8.26986 23.5513 8.73589C24.0659 9.56438 24.8892 9.87506 25.661 9.40903C26.4843 8.94301 26.6901 8.1663 26.1755 7.23425C26.0726 7.02713 25.9697 6.87179 25.8668 6.66467C22.7795 1.22772 15.5759 -1.41308 9.55569 0.761698C7.80623 1.38306 6.26259 2.26333 4.97622 3.4025C3.53549 4.64523 2.30058 6.14686 1.47731 7.9074C-0.323601 11.5838 -0.477965 15.3638 1.01422 19.1955C1.06567 19.4027 1.16858 19.558 1.27149 19.7651C1.3744 19.9205 1.42585 20.0758 1.58022 20.1794C1.68313 20.3347 1.73458 20.4901 1.83749 20.6454C4.87331 26.6519 12.4886 29.7588 19.3321 26.9626C22.4193 25.7199 24.6833 23.5969 26.2784 20.6972C26.7415 19.7134 26.5357 18.8849 25.7124 18.4188Z" fill="#03C3F2"/>
<path d="M27.4617 12.2569C26.7414 11.3249 25.5064 11.1695 24.3744 11.8944C21.9046 13.3961 20.2581 13.2925 17.8912 11.532C16.6048 10.5481 14.6495 10.7553 13.6204 11.8944C12.5399 13.1372 12.6942 15.1566 13.8777 16.2958C15.1126 17.4349 16.965 17.4349 18.3543 16.1922C20.4639 14.3281 22.1104 14.1728 24.4773 15.5708C25.6093 16.244 26.7414 16.0887 27.4617 15.2602C28.1821 14.3799 28.1821 13.1889 27.4617 12.2569Z" fill="url(#paint0_linear)"/>
<defs>
<linearGradient id="paint0_linear" x1="26.7111" y1="14.1612" x2="11.605" y2="13.9666" gradientUnits="userSpaceOnUse">
<stop stop-color="#03C3F2"/>
<stop offset="0.3225" stop-color="#04C5F0"/>
<stop offset="0.4387" stop-color="#09CCEB"/>
<stop offset="0.5212" stop-color="#10D7E1"/>
<stop offset="0.5878" stop-color="#1BE8D3"/>
<stop offset="0.6025" stop-color="#1EEDCF"/>
</linearGradient>
</defs>
</svg>
